<svg xmlns="http://www.w3.org/2000/svg" viewBox="0 0 1100 420" width="1100" height="420"><defs><linearGradient id="bg" x1="0" x2="1" y1="0" y2="1"><stop stop-color="#080b16"/><stop offset=".55" stop-color="#16102b"/><stop offset="1" stop-color="#071c2b"/></linearGradient><linearGradient id="hair" x1="0" x2="1"><stop stop-color="#7c3aed"/><stop offset=".5" stop-color="#00d9ff"/><stop offset="1" stop-color="#9d5cff"/></linearGradient><filter id="glow"><feGaussianBlur stdDeviation="6" result="b"/><feMerge><feMergeNode in="b"/><feMergeNode in="SourceGraphic"/></feMerge></filter><filter id="soft"><feGaussianBlur stdDeviation="18"/></filter></defs><rect width="1100" height="420" rx="24" fill="url(#bg)" stroke="#30363d" stroke-width="2"/><g opacity=".18" stroke="#00d9ff"><path d="M0 330H1100M0 270H1100M0 210H1100M0 150H1100"/><path d="M80 0V420M180 0V420M280 0V420M820 0V420M920 0V420M1020 0V420"/></g><circle cx="850" cy="190" r="125" fill="#7c3aed" opacity=".12" filter="url(#soft)"/><circle cx="180" cy="90" r="90" fill="#00d9ff" opacity=".08" filter="url(#soft)"/><g transform="translate(610 35)"><path d="M115 265C82 235 72 190 80 145C88 88 133 48 193 48C257 48 302 92 305 154C308 207 288 247 259 270Z" fill="#f3c6ad" stroke="#111827" stroke-width="6"/><path d="M75 166C54 102 89 42 155 20C228-4 300 34 315 100C321 128 315 151 307 171L280 133L258 86C227 112 177 122 119 108L96 168Z" fill="url(#hair)" stroke="#111827" stroke-width="7"/><path d="M104 105C85 83 91 42 124 24L99 15C57 43 50 98 76 137Z" fill="#7c3aed" stroke="#111827" stroke-width="7"/><path d="M286 103C318 78 326 48 307 25L334 37C358 68 344 112 310 137Z" fill="#00d9ff" stroke="#111827" stroke-width="7"/><path d="M121 167C137 151 154 151 168 166" fill="none" stroke="#111827" stroke-width="6" stroke-linecap="round"/><path d="M216 166C231 151 248 151 263 166" fill="none" stroke="#111827" stroke-width="6" stroke-linecap="round"/><ellipse cx="151" cy="181" rx="12" ry="18" fill="#16102b"><animate attributeName="ry" values="18;2;18" dur="4s" repeatCount="indefinite"/></ellipse><ellipse cx="233" cy="181" rx="12" ry="18" fill="#16102b"><animate attributeName="ry" values="18;2;18" dur="4s" begin=".12s" repeatCount="indefinite"/></ellipse><path d="M174 218C190 229 207 229 223 218" fill="none" stroke="#b54d78" stroke-width="5" stroke-linecap="round"/><path d="M105 266L78 365H298L270 266Z" fill="#101827" stroke="#111827" stroke-width="7"/><path d="M140 269L190 338L240 269" fill="none" stroke="#00d9ff" stroke-width="7"/><path d="M190 338V380" stroke="#7c3aed" stroke-width="7"/><circle cx="190" cy="338" r="9" fill="#00d9ff" filter="url(#glow)"><animate attributeName="r" values="8;13;8" dur="1.6s" repeatCount="indefinite"/></circle></g><g font-family="monospace"><text x="52" y="72" fill="#00d9ff" font-size="18" font-weight="700">// ANIME_CORE.EXE</text><text x="52" y="112" fill="#fff" font-size="38" font-weight="700">WASE // CYBER DREAM</text><text x="52" y="145" fill="#9d5cff" font-size="16">SYSTEM ONLINE • CODE • CREATE • REPEAT</text><text x="52" y="210" fill="#8b949e" font-size="15">NEURAL LINK</text><rect x="52" y="225" width="390" height="8" rx="4" fill="#21262d"/><rect x="52" y="225" width="300" height="8" rx="4" fill="#7c3aed"><animate attributeName="width" values="160;350;250;390;160" dur="3s" repeatCount="indefinite"/></rect><text x="52" y="270" fill="#8b949e" font-size="15">MOOD</text><text x="125" y="270" fill="#00d9ff" font-size="15">BUILDING SOMETHING BEAUTIFUL</text><text x="52" y="330" fill="#6e7681" font-size="13">/assets/anime-cyber.svg</text><text x="52" y="355" fill="#6e7681" font-size="13">animated profile visual // 01</text></g><g filter="url(#glow)"><circle cx="1010" cy="70" r="4" fill="#00d9ff"><animate attributeName="cy" values="70;350;70" dur="5s" repeatCount="indefinite"/></circle><circle cx="480" cy="370" r="3" fill="#9d5cff"><animate attributeName="cx" values="480;560;480" dur="2.8s" repeatCount="indefinite"/></circle></g></svg>